<svg width="110px" height="18px" xmlns="http://www.w3.org/2000/svg">
  <path d="M9.162 14.09v-.486c-1.224-.162-1.566-.306-1.566-1.296V1.832h.45c1.152 0 2.34.144 2.952 1.62l.558 1.332h.54V.986H.252v3.798h.54l.558-1.332c.612-1.476 1.8-1.62 2.952-1.62h.45v10.476c0 .99-.342 1.134-1.584 1.296v.486h5.994zm8.472 0v-.45c-.972-.144-1.278-.342-1.278-1.26V8.816c0-1.998.954-3.258 2.412-3.258 1.116 0 1.728.72 1.728 2.304v4.518c0 .918-.252 1.116-1.224 1.26v.45h5.238v-.45c-1.134-.144-1.35-.342-1.35-1.26V7.718c0-2.268-1.026-3.528-3.204-3.528-1.692 0-2.934.81-3.6 2.088V.428h-.468L12.36.986v.45c.99.144 1.35.756 1.35 1.71v9.234c0 .918-.234 1.116-1.35 1.26v.45h5.274zm12.09.216c1.655 0 3.24-.63 4.445-2.466l-.54-.324c-.828 1.008-2.052 1.278-2.934 1.278-1.764 0-3.06-1.116-3.078-3.942h6.498c.162-2.574-.846-4.662-4.032-4.662-3.132 0-5.22 2.052-5.22 5.256 0 3.294 2.25 4.86 4.86 4.86zm1.925-6.282h-3.996c.162-1.8.918-3.06 2.196-3.06 1.134 0 1.818.99 1.8 3.06zm10.32 6.282c2.448 0 4.068-1.188 4.068-3.15 0-1.548-.864-2.358-2.88-3.06l-.756-.27c-1.278-.45-1.746-.9-1.746-1.566 0-.774.558-1.314 1.566-1.314 1.188 0 2.304.774 2.862 2.106h.486V4.856c-.288-.144-1.674-.666-3.276-.666-2.25 0-3.708 1.098-3.708 2.952 0 1.71 1.188 2.484 2.898 3.078l.738.27c1.332.468 1.746.936 1.746 1.566 0 .918-.81 1.494-1.872 1.494-1.206 0-2.628-.774-3.15-2.412h-.486v2.484c.396.198 1.872.684 3.51.684zm9.101 0c1.674 0 2.862-.81 3.51-2.106h.036l.288 2.016h.396l3.24-.558v-.432c-1.116-.126-1.35-.558-1.35-1.458V4.28h-.468l-3.528.558v.45c.99.144 1.332.756 1.332 1.71v2.664c0 1.998-.882 3.276-2.286 3.276-1.116 0-1.728-.72-1.728-2.322V4.28h-.486l-3.528.558v.45c.99.144 1.35.756 1.35 1.71v3.762c0 2.286 1.008 3.546 3.222 3.546zm12.9 3.348v-.432c-.972-.162-1.278-.342-1.278-1.26v-2.016c.63.234 1.35.36 2.088.36 2.988 0 5.13-1.998 5.13-5.346 0-3.042-1.8-4.77-4.014-4.77-1.53 0-2.646.792-3.24 2.07h-.054V4.28h-.378l-3.528.558v.45c.99.144 1.35.756 1.35 1.71v8.964c0 .918-.234 1.098-1.35 1.26v.432h5.274zm.738-4.158c-.684 0-1.386-.252-2.016-.81v-3.87c0-2.016.918-3.258 2.25-3.258 1.386 0 2.214 1.332 2.214 3.906 0 2.862-.954 4.032-2.448 4.032zM75.7 17.654v-.432c-.972-.162-1.278-.342-1.278-1.26v-2.016c.63.234 1.35.36 2.088.36 2.988 0 5.13-1.998 5.13-5.346 0-3.042-1.8-4.77-4.014-4.77-1.53 0-2.646.792-3.24 2.07h-.054V4.28h-.378l-3.528.558v.45c.99.144 1.35.756 1.35 1.71v8.964c0 .918-.234 1.098-1.35 1.26v.432H75.7zm.738-4.158c-.684 0-1.386-.252-2.016-.81v-3.87c0-2.016.918-3.258 2.25-3.258 1.386 0 2.214 1.332 2.214 3.906 0 2.862-.954 4.032-2.448 4.032zm11.153.81c2.988 0 5.31-2.106 5.31-5.202 0-2.988-2.142-4.914-5.004-4.914-3.006 0-5.328 2.106-5.328 5.202 0 2.988 2.142 4.914 5.022 4.914zm.27-.792c-1.62 0-2.466-1.71-2.466-4.554 0-2.484.648-3.978 2.214-3.978 1.62 0 2.466 1.692 2.466 4.536 0 2.502-.648 3.996-2.214 3.996zm11.172.576v-.45c-1.134-.144-1.458-.342-1.458-1.26V7.736c0-.936.504-1.584 1.476-1.584.324 0 .648.09 1.08.288l1.062.486c.306-.54.45-1.116.45-1.53 0-.702-.45-1.17-1.404-1.17-1.134 0-2.142.846-2.682 2.088h-.072V4.28h-.378l-3.528.558v.45c.99.144 1.35.756 1.35 1.71v5.382c0 .918-.234 1.116-1.35 1.26v.45h5.454zm6.761.216c1.584 0 2.628-1.062 3.294-1.872l-.504-.396c-.702.63-1.116.882-1.656.882-.666 0-1.116-.414-1.116-1.548V5.576h2.412l.216-1.17h-2.628v-3.06h-.666c-1.404 2.88-1.8 3.132-3.33 3.312v.918h1.35v5.904c0 1.746 1.026 2.826 2.628 2.826z" fill="#1E1D1D" fill-rule="nonzero"/>
</svg>
