<svg width="101px" height="18px" xmlns="http://www.w3.org/2000/svg">
  <path d="M9.162 14.09v-.486c-1.224-.162-1.566-.306-1.566-1.296V1.832h.45c1.152 0 2.34.144 2.952 1.62l.558 1.332h.54V.986H.252v3.798h.54l.558-1.332c.612-1.476 1.8-1.62 2.952-1.62h.45v10.476c0 .99-.342 1.134-1.584 1.296v.486h5.994zm8.472 0v-.45c-.972-.144-1.278-.342-1.278-1.26V8.816c0-1.998.954-3.258 2.412-3.258 1.116 0 1.728.72 1.728 2.304v4.518c0 .918-.252 1.116-1.224 1.26v.45h5.238v-.45c-1.134-.144-1.35-.342-1.35-1.26V7.718c0-2.268-1.026-3.528-3.204-3.528-1.692 0-2.934.81-3.6 2.088V.428h-.468L12.36.986v.45c.99.144 1.35.756 1.35 1.71v9.234c0 .918-.234 1.116-1.35 1.26v.45h5.274zm12.09.216c1.655 0 3.24-.63 4.445-2.466l-.54-.324c-.828 1.008-2.052 1.278-2.934 1.278-1.764 0-3.06-1.116-3.078-3.942h6.498c.162-2.574-.846-4.662-4.032-4.662-3.132 0-5.22 2.052-5.22 5.256 0 3.294 2.25 4.86 4.86 4.86zm1.925-6.282h-3.996c.162-1.8.918-3.06 2.196-3.06 1.134 0 1.818.99 1.8 3.06zm10.32 6.282c2.448 0 4.068-1.188 4.068-3.15 0-1.548-.864-2.358-2.88-3.06l-.756-.27c-1.278-.45-1.746-.9-1.746-1.566 0-.774.558-1.314 1.566-1.314 1.188 0 2.304.774 2.862 2.106h.486V4.856c-.288-.144-1.674-.666-3.276-.666-2.25 0-3.708 1.098-3.708 2.952 0 1.71 1.188 2.484 2.898 3.078l.738.27c1.332.468 1.746.936 1.746 1.566 0 .918-.81 1.494-1.872 1.494-1.206 0-2.628-.774-3.15-2.412h-.486v2.484c.396.198 1.872.684 3.51.684zm6.383 3.474c1.476 0 2.754-.756 3.78-3.222l3.348-8.082c.396-.972.828-1.53 1.368-1.638v-.432h-3.762v.432c.864.126 1.566.882 1.026 2.286l-1.836 4.788-2.034-5.472c-.342-.972 0-1.494.936-1.602v-.432H46.12v.432c.576.126.972.702 1.35 1.638l3.168 7.56h.702l-.18.45c-.522 1.332-1.008 1.692-1.908 1.692-.468 0-.99-.18-1.674-.45l-.774-.27a1.453 1.453 0 00-.288.9c0 .684.468 1.422 1.836 1.422zm11.766-3.474c2.448 0 4.068-1.188 4.068-3.15 0-1.548-.864-2.358-2.88-3.06l-.756-.27c-1.278-.45-1.746-.9-1.746-1.566 0-.774.558-1.314 1.566-1.314 1.188 0 2.304.774 2.862 2.106h.486V4.856c-.288-.144-1.674-.666-3.276-.666-2.25 0-3.708 1.098-3.708 2.952 0 1.71 1.188 2.484 2.898 3.078l.738.27c1.332.468 1.746.936 1.746 1.566 0 .918-.81 1.494-1.872 1.494-1.206 0-2.628-.774-3.15-2.412h-.486v2.484c.396.198 1.872.684 3.51.684zm8.382 0c1.584 0 2.628-1.062 3.294-1.872l-.504-.396c-.702.63-1.116.882-1.656.882-.666 0-1.116-.414-1.116-1.548V5.576h2.412l.216-1.17h-2.628v-3.06h-.666c-1.404 2.88-1.8 3.132-3.33 3.312v.918h1.35v5.904c0 1.746 1.026 2.826 2.628 2.826zm8.021 0c1.656 0 3.24-.63 4.446-2.466l-.54-.324c-.828 1.008-2.052 1.278-2.934 1.278-1.764 0-3.06-1.116-3.078-3.942h6.498c.162-2.574-.846-4.662-4.032-4.662-3.132 0-5.22 2.052-5.22 5.256 0 3.294 2.25 4.86 4.86 4.86zm1.926-6.282h-3.996c.162-1.8.918-3.06 2.196-3.06 1.134 0 1.818.99 1.8 3.06zm8.58 6.066v-.45c-.972-.144-1.278-.342-1.278-1.26V8.816c0-1.998.936-3.258 2.376-3.258 1.098 0 1.584.72 1.584 2.304v4.518c0 .918-.252 1.116-1.224 1.26v.45h5.148v-.45c-.972-.144-1.278-.342-1.278-1.26V8.816c0-1.998.936-3.258 2.376-3.258 1.098 0 1.584.72 1.584 2.304v4.518c0 .918-.252 1.116-1.224 1.26v.45h5.238v-.45c-1.134-.144-1.35-.342-1.35-1.26V7.718c0-2.268-.9-3.528-3.06-3.528-1.764 0-3.042.9-3.672 2.322C91.959 5 91.04 4.19 89.313 4.19c-1.71 0-2.934.828-3.6 2.142h-.054V4.28h-.378l-3.528.558v.45c.99.144 1.35.756 1.35 1.71v5.382c0 .918-.234 1.116-1.35 1.26v.45h5.274z" fill="#1E1D1D" fill-rule="nonzero"/>
</svg>
