<svg width="109px" height="46px" xmlns="http://www.w3.org/2000/svg" xmlns:xlink="http://www.w3.org/1999/xlink">
  <defs>
    <path d="M269.572 260.593c-4.468 6.012-14.72 9.897-26.118 9.897h-1.167l22.94-30.87c2.68-3.607 9.154-6.03 16.107-6.03h8.305l-20.067 27.003zm-53.195 9.897l22.94-30.87c2.68-3.607 9.154-6.03 16.108-6.03h8.305l-20.068 27.003c-4.468 6.012-14.72 9.897-26.119 9.897h-1.166zm-25.016 0l22.94-30.87c2.68-3.607 9.154-6.03 16.108-6.03h8.304l-20.067 27.003c-4.468 6.012-14.72 9.897-26.12 9.897h-1.165zm103.4-39.993c-.434-.868-1.378-1.407-2.468-1.407h-11.199c-4.133 0-8.092.747-11.45 2.07a2.257 2.257 0 00-.205-.663c-.433-.868-1.38-1.407-2.467-1.407h-11.2c-4.118 0-8.062.742-11.414 2.056-.036-.221-.1-.44-.204-.649-.433-.868-1.378-1.407-2.466-1.407h-11.199c-8.294 0-15.886 3.004-19.341 7.653l-24.654 33.171a2.454 2.454 0 00-.237 2.57c.494.99 1.61 1.606 2.912 1.606h3.33c6.987 0 13.629-1.388 19.056-3.807-.349.69-.363 1.5-.014 2.2.494.992 1.61 1.607 2.912 1.607h3.33c7.006 0 13.666-1.395 19.103-3.827a2.442 2.442 0 00-.023 2.22c.494.992 1.61 1.607 2.912 1.607h3.33c12.642 0 24.175-4.526 29.381-11.53l22.057-29.681c.52-.698.602-1.61.218-2.382z" id="a"/>
  </defs>
  <g transform="translate(-186 -229)" fill="none" fill-rule="evenodd">
    <mask fill="#fff">
      <use xlink:href="#a"/>
    </mask>
    <use fill="#1E1D1D" xlink:href="#a"/>
  </g>
</svg>
