<svg width="98px" height="40px" xmlns="http://www.w3.org/2000/svg">
  <path d="M10.093 14.09v-.486c-1.224-.162-1.566-.306-1.566-1.296V8.996l3.33-5.922c.522-.954.864-1.422 1.638-1.602V.986H9.03v.486c1.386.18 1.854 1.098 1.224 2.25L7.987 7.88 5.503 3.2c-.522-.99-.36-1.548 1.152-1.728V.986H.48v.486c.63.18 1.026.522 1.584 1.494l3.6 6.408v2.934c0 .99-.342 1.134-1.566 1.296v.486h5.994zm6.563.216c2.988 0 5.31-2.106 5.31-5.202 0-2.988-2.142-4.914-5.004-4.914-3.006 0-5.328 2.106-5.328 5.202 0 2.988 2.142 4.914 5.022 4.914zm.27-.792c-1.62 0-2.466-1.71-2.466-4.554 0-2.484.648-3.978 2.214-3.978 1.62 0 2.466 1.692 2.466 4.536 0 2.502-.648 3.996-2.214 3.996zm9.84.792c1.674 0 2.862-.81 3.51-2.106h.036l.288 2.016h.396l3.24-.558v-.432c-1.116-.126-1.35-.558-1.35-1.458V4.28h-.468l-3.528.558v.45c.99.144 1.332.756 1.332 1.71v2.664c0 1.998-.882 3.276-2.286 3.276-1.116 0-1.728-.72-1.728-2.322V4.28h-.486l-3.528.558v.45c.99.144 1.35.756 1.35 1.71v3.762c0 2.286 1.008 3.546 3.222 3.546zm16.277 0c1.332 0 2.754-.45 4.032-1.224.81.864 1.638 1.116 2.88 1.116.504 0 1.278-.036 1.872-.108v-.45c-.45 0-1.368-.576-2.754-2.196 1.08-1.206 1.8-2.682 1.8-4.23v-.648h-2.988v.45c.846.09 1.152.324 1.152 1.278a4.38 4.38 0 01-.666 2.322l-3.96-4.644c-.864-1.008-1.458-1.998-1.458-2.844 0-.828.54-1.566 1.53-1.566 1.062 0 1.872.846 2.52 2.61h.576V1.634c-.81-.432-1.8-.864-3.006-.864-2.052 0-3.87 1.134-3.87 3.132 0 .882.342 1.728 1.08 2.79-1.782.756-3.222 2.07-3.222 3.924 0 2.304 2.16 3.69 4.482 3.69zm1.296-1.296c-1.566 0-3.096-1.26-3.096-3.276 0-1.026.378-1.818.972-2.466.198.27.432.54.666.828l3.6 4.302c-.702.396-1.458.612-2.142.612zm13.326 4.77c1.476 0 2.754-.756 3.78-3.222l3.348-8.082c.396-.972.828-1.53 1.368-1.638v-.432h-3.762v.432c.864.126 1.566.882 1.026 2.286l-1.836 4.788-2.034-5.472c-.342-.972 0-1.494.936-1.602v-.432h-5.058v.432c.576.126.972.702 1.35 1.638l3.168 7.56h.702l-.18.45c-.522 1.332-1.008 1.692-1.908 1.692-.468 0-.99-.18-1.674-.45l-.774-.27a1.453 1.453 0 00-.288.9c0 .684.468 1.422 1.836 1.422zm13.277-3.474c2.988 0 5.31-2.106 5.31-5.202 0-2.988-2.142-4.914-5.004-4.914-3.006 0-5.328 2.106-5.328 5.202 0 2.988 2.142 4.914 5.022 4.914zm.27-.792c-1.62 0-2.466-1.71-2.466-4.554 0-2.484.648-3.978 2.214-3.978 1.62 0 2.466 1.692 2.466 4.536 0 2.502-.648 3.996-2.214 3.996zm9.84.792c1.674 0 2.862-.81 3.51-2.106h.036l.288 2.016h.396l3.24-.558v-.432c-1.116-.126-1.35-.558-1.35-1.458V4.28h-.468l-3.528.558v.45c.99.144 1.332.756 1.332 1.71v2.664c0 1.998-.882 3.276-2.286 3.276-1.116 0-1.728-.72-1.728-2.322V4.28h-.486l-3.528.558v.45c.99.144 1.35.756 1.35 1.71v3.762c0 2.286 1.008 3.546 3.222 3.546zm13.494-.216v-.45c-1.134-.144-1.458-.342-1.458-1.26V7.736c0-.936.504-1.584 1.476-1.584.324 0 .648.09 1.08.288l1.062.486c.306-.54.45-1.116.45-1.53 0-.702-.45-1.17-1.404-1.17-1.134 0-2.142.846-2.682 2.088h-.072V4.28h-.378l-3.528.558v.45c.99.144 1.35.756 1.35 1.71v5.382c0 .918-.234 1.116-1.35 1.26v.45h5.454zm-64.31 25.798c3.727 0 5.959-1.53 5.959-3.492 0-1.386-1.116-2.16-3.312-2.286l-3.258-.18c-.684-.036-.972-.162-.972-.45 0-.198.162-.396.558-.612l.414-.252c.396.09.882.144 1.35.144 2.484 0 4.428-1.296 4.428-3.402 0-.756-.252-1.404-.702-1.908.342-.162.774-.216 1.242-.216h.648c.18-.828-.108-1.53-.972-1.53-.774 0-1.314.54-1.656 1.152-.72-.432-1.692-.666-2.79-.666-2.574 0-4.518 1.26-4.518 3.384 0 1.494.99 2.322 2.052 2.754l-.378.162c-1.044.468-1.71 1.008-1.71 1.944 0 .882.594 1.494 2.34 1.584l3.366.18c1.278.072 1.764.414 1.764 1.062 0 .954-1.134 1.764-3.06 1.764-1.692 0-2.664-.612-2.664-1.584 0-.198.036-.396.108-.612a3.188 3.188 0 00-.63-.072c-.9 0-1.314.522-1.314 1.242 0 1.332 1.494 1.89 3.708 1.89zm.81-7.902c-1.187 0-1.817-1.026-1.817-2.592 0-1.476.576-2.43 1.782-2.43 1.188 0 1.836.99 1.836 2.538 0 1.494-.594 2.484-1.8 2.484zm10.83 4.32c2.989 0 5.31-2.106 5.31-5.202 0-2.988-2.141-4.914-5.003-4.914-3.006 0-5.328 2.106-5.328 5.202 0 2.988 2.142 4.914 5.022 4.914zm.27-.792c-1.62 0-2.465-1.71-2.465-4.554 0-2.484.648-3.978 2.214-3.978 1.62 0 2.466 1.692 2.466 4.536 0 2.502-.648 3.996-2.214 3.996zm8.742.792c1.494 0 2.502-.648 3.06-1.692.126 1.008.594 1.656 1.584 1.656.972 0 1.962-.612 2.502-1.368l-.198-.45c-.234.144-.504.252-.72.252-.396 0-.558-.342-.558-.972V29.88c0-2.43-1.008-3.69-3.906-3.69-2.556 0-4.23 1.008-4.23 2.178 0 .576.378 1.062 1.08 1.206l.54-.756c.774-1.152 1.404-1.782 2.268-1.782.936 0 1.602.702 1.602 2.34v1.674c-.45-.054-.9-.09-1.404-.09-2.682 0-4.572.918-4.572 2.898 0 1.602 1.242 2.448 2.952 2.448zm1.188-1.332c-.846 0-1.422-.486-1.422-1.548 0-1.026.522-1.674 2.088-1.674.396 0 .792.036 1.17.09v.216c0 1.872-.63 2.916-1.836 2.916zM63.32 36.09v-.45c-.972-.144-1.278-.342-1.278-1.26V22.428h-.468l-3.546.558v.45c1.008.144 1.35.756 1.35 1.71v9.234c0 .918-.216 1.116-1.35 1.26v.45h5.292zm3.935.216c2.448 0 4.068-1.188 4.068-3.15 0-1.548-.864-2.358-2.88-3.06l-.756-.27c-1.278-.45-1.746-.9-1.746-1.566 0-.774.558-1.314 1.566-1.314 1.188 0 2.304.774 2.862 2.106h.486v-2.196c-.288-.144-1.674-.666-3.276-.666-2.25 0-3.708 1.098-3.708 2.952 0 1.71 1.188 2.484 2.898 3.078l.738.27c1.332.468 1.746.936 1.746 1.566 0 .918-.81 1.494-1.872 1.494-1.206 0-2.628-.774-3.15-2.412h-.486v2.484c.396.198 1.872.684 3.51.684z" fill="#1E1D1D" fill-rule="nonzero"/>
</svg>
